<mxfile host="app.diagrams.net" modified="2024-07-21T07:47:08.775Z" agent="Mozilla/5.0 (Windows NT 10.0; Win64; x64) AppleWebKit/537.36 (KHTML, like Gecko) Chrome/128.0.0.0 Safari/537.36 Edg/128.0.0.0" version="24.6.5" etag="_XsVquRZj-Hop7P7YWt9" type="github">
  <diagram name="第 1 页" id="42klITVC1EchFTXipI6x">
    <mxGraphModel>
      <root>
        <mxCell id="0" />
        <mxCell id="1" parent="0" />
      </root>
    </mxGraphModel>
  </diagram>
</mxfile>
